<mxfile host="app.diagrams.net" agent="Mozilla/5.0 (X11; Linux x86_64) AppleWebKit/537.36 (KHTML, like Gecko) Chrome/118.0.0.0 Safari/537.36" version="24.7.12" pages="2">
  <diagram name="create CSDB object" id="0783ab3e-0a74-02c8-0abd-f7b4e66b4bec">
    <mxGraphModel dx="851" dy="619" grid="1" gridSize="10" guides="1" tooltips="1" connect="1" arrows="1" fold="1" page="1" pageScale="1" pageWidth="850" pageHeight="1100" background="none" math="0" shadow="0">
      <root>
        <mxCell id="0" />
        <mxCell id="1" parent="0" />
        <mxCell id="1c1d494c118603dd-1" value="Pool" style="swimlane;html=1;childLayout=stackLayout;startSize=20;rounded=0;shadow=0;comic=0;labelBackgroundColor=none;strokeWidth=1;fontFamily=Verdana;fontSize=12;align=center;" parent="1" vertex="1">
          <mxGeometry x="70" y="80" width="500" height="600" as="geometry" />
        </mxCell>
        <mxCell id="1c1d494c118603dd-2" value="Csdb Owner" style="swimlane;html=1;startSize=20;" parent="1c1d494c118603dd-1" vertex="1">
          <mxGeometry y="20" width="250" height="580" as="geometry" />
        </mxCell>
        <mxCell id="KF7tXi_cMrJoO99_1_Vw-12" value="menulis xml file" style="rounded=1;whiteSpace=wrap;html=1;arcSize=50;" vertex="1" parent="1c1d494c118603dd-2">
          <mxGeometry x="70" y="90" width="110" height="30" as="geometry" />
        </mxCell>
        <mxCell id="1c1d494c118603dd-3" value="System" style="swimlane;html=1;startSize=20;" parent="1c1d494c118603dd-1" vertex="1">
          <mxGeometry x="250" y="20" width="220" height="580" as="geometry" />
        </mxCell>
        <mxCell id="KF7tXi_cMrJoO99_1_Vw-3" style="edgeStyle=orthogonalEdgeStyle;rounded=0;orthogonalLoop=1;jettySize=auto;html=1;entryX=0.5;entryY=0;entryDx=0;entryDy=0;" edge="1" parent="1c1d494c118603dd-3" source="60571a20871a0731-4" target="60571a20871a0731-8">
          <mxGeometry relative="1" as="geometry" />
        </mxCell>
        <mxCell id="60571a20871a0731-4" value="" style="ellipse;whiteSpace=wrap;html=1;rounded=0;shadow=0;comic=0;labelBackgroundColor=none;strokeWidth=1;fillColor=#000000;fontFamily=Verdana;fontSize=12;align=center;" parent="1c1d494c118603dd-3" vertex="1">
          <mxGeometry x="100" y="30" width="40" height="40" as="geometry" />
        </mxCell>
        <mxCell id="60571a20871a0731-8" value="menampilkan&amp;nbsp;&lt;div&gt;text editor&lt;/div&gt;" style="rounded=1;whiteSpace=wrap;html=1;shadow=0;comic=0;labelBackgroundColor=none;strokeWidth=1;fontFamily=Verdana;fontSize=12;align=center;arcSize=50;" parent="1c1d494c118603dd-3" vertex="1">
          <mxGeometry x="70" y="90" width="100" height="30" as="geometry" />
        </mxCell>
        <mxCell id="KF7tXi_cMrJoO99_1_Vw-19" style="edgeStyle=orthogonalEdgeStyle;rounded=0;orthogonalLoop=1;jettySize=auto;html=1;" edge="1" parent="1c1d494c118603dd-3" source="KF7tXi_cMrJoO99_1_Vw-14" target="KF7tXi_cMrJoO99_1_Vw-16">
          <mxGeometry relative="1" as="geometry" />
        </mxCell>
        <mxCell id="KF7tXi_cMrJoO99_1_Vw-14" value="validasi request" style="rounded=1;whiteSpace=wrap;html=1;arcSize=50;" vertex="1" parent="1c1d494c118603dd-3">
          <mxGeometry x="70" y="140" width="105" height="30" as="geometry" />
        </mxCell>
        <mxCell id="KF7tXi_cMrJoO99_1_Vw-20" style="edgeStyle=orthogonalEdgeStyle;rounded=0;orthogonalLoop=1;jettySize=auto;html=1;" edge="1" parent="1c1d494c118603dd-3" source="KF7tXi_cMrJoO99_1_Vw-16" target="KF7tXi_cMrJoO99_1_Vw-17">
          <mxGeometry relative="1" as="geometry" />
        </mxCell>
        <mxCell id="KF7tXi_cMrJoO99_1_Vw-16" value="Instance csdb model" style="rounded=1;whiteSpace=wrap;html=1;arcSize=50;" vertex="1" parent="1c1d494c118603dd-3">
          <mxGeometry x="62.5" y="200" width="120" height="30" as="geometry" />
        </mxCell>
        <mxCell id="KF7tXi_cMrJoO99_1_Vw-22" style="edgeStyle=orthogonalEdgeStyle;rounded=0;orthogonalLoop=1;jettySize=auto;html=1;" edge="1" parent="1c1d494c118603dd-3" source="KF7tXi_cMrJoO99_1_Vw-17" target="KF7tXi_cMrJoO99_1_Vw-21">
          <mxGeometry relative="1" as="geometry" />
        </mxCell>
        <mxCell id="KF7tXi_cMrJoO99_1_Vw-17" value="Instance history" style="rounded=1;whiteSpace=wrap;html=1;arcSize=50;" vertex="1" parent="1c1d494c118603dd-3">
          <mxGeometry x="67.5" y="260" width="110" height="30" as="geometry" />
        </mxCell>
        <mxCell id="KF7tXi_cMrJoO99_1_Vw-26" style="edgeStyle=orthogonalEdgeStyle;rounded=0;orthogonalLoop=1;jettySize=auto;html=1;entryX=0.5;entryY=0;entryDx=0;entryDy=0;" edge="1" parent="1c1d494c118603dd-3" source="KF7tXi_cMrJoO99_1_Vw-21">
          <mxGeometry relative="1" as="geometry">
            <mxPoint x="122.5" y="380" as="targetPoint" />
          </mxGeometry>
        </mxCell>
        <mxCell id="KF7tXi_cMrJoO99_1_Vw-21" value="save" style="rounded=1;whiteSpace=wrap;html=1;arcSize=50;" vertex="1" parent="1c1d494c118603dd-3">
          <mxGeometry x="90" y="320" width="65" height="30" as="geometry" />
        </mxCell>
        <mxCell id="KF7tXi_cMrJoO99_1_Vw-29" style="edgeStyle=orthogonalEdgeStyle;rounded=0;orthogonalLoop=1;jettySize=auto;html=1;" edge="1" parent="1c1d494c118603dd-3" source="KF7tXi_cMrJoO99_1_Vw-27" target="KF7tXi_cMrJoO99_1_Vw-28">
          <mxGeometry relative="1" as="geometry" />
        </mxCell>
        <mxCell id="KF7tXi_cMrJoO99_1_Vw-27" value="dispatch job create object" style="rounded=1;whiteSpace=wrap;html=1;arcSize=50;" vertex="1" parent="1c1d494c118603dd-3">
          <mxGeometry x="62.5" y="380" width="120" height="30" as="geometry" />
        </mxCell>
        <mxCell id="KF7tXi_cMrJoO99_1_Vw-32" style="edgeStyle=orthogonalEdgeStyle;rounded=0;orthogonalLoop=1;jettySize=auto;html=1;entryX=0.5;entryY=0;entryDx=0;entryDy=0;" edge="1" parent="1c1d494c118603dd-3" source="KF7tXi_cMrJoO99_1_Vw-28" target="KF7tXi_cMrJoO99_1_Vw-30">
          <mxGeometry relative="1" as="geometry" />
        </mxCell>
        <mxCell id="KF7tXi_cMrJoO99_1_Vw-28" value="Menampilkan flash notification" style="rounded=1;whiteSpace=wrap;html=1;arcSize=50;" vertex="1" parent="1c1d494c118603dd-3">
          <mxGeometry x="62.5" y="440" width="120" height="30" as="geometry" />
        </mxCell>
        <mxCell id="KF7tXi_cMrJoO99_1_Vw-30" value="" style="ellipse;html=1;shape=endState;fillColor=strokeColor;" vertex="1" parent="1c1d494c118603dd-3">
          <mxGeometry x="102.5" y="500" width="40" height="40" as="geometry" />
        </mxCell>
        <mxCell id="KF7tXi_cMrJoO99_1_Vw-13" style="edgeStyle=orthogonalEdgeStyle;rounded=0;orthogonalLoop=1;jettySize=auto;html=1;entryX=1;entryY=0.5;entryDx=0;entryDy=0;" edge="1" parent="1c1d494c118603dd-1" source="60571a20871a0731-8" target="KF7tXi_cMrJoO99_1_Vw-12">
          <mxGeometry relative="1" as="geometry" />
        </mxCell>
        <mxCell id="KF7tXi_cMrJoO99_1_Vw-15" style="edgeStyle=orthogonalEdgeStyle;rounded=0;orthogonalLoop=1;jettySize=auto;html=1;entryX=0;entryY=0.5;entryDx=0;entryDy=0;" edge="1" parent="1c1d494c118603dd-1" source="KF7tXi_cMrJoO99_1_Vw-12" target="KF7tXi_cMrJoO99_1_Vw-14">
          <mxGeometry relative="1" as="geometry">
            <Array as="points">
              <mxPoint x="120" y="175" />
            </Array>
          </mxGeometry>
        </mxCell>
      </root>
    </mxGraphModel>
  </diagram>
  <diagram id="2mLU-NvOtpn9og-yZZQ8" name="Page-2">
    <mxGraphModel grid="1" page="1" gridSize="10" guides="1" tooltips="1" connect="1" arrows="1" fold="1" pageScale="1" pageWidth="850" pageHeight="1100" math="0" shadow="0">
      <root>
        <mxCell id="0" />
        <mxCell id="1" parent="0" />
      </root>
    </mxGraphModel>
  </diagram>
</mxfile>
